# xmcd
#
# Track frame offsets:
# 150
# 13672
# 27592
# 39570
# 52535
# 66675
# 79620
# 93190
# 107920
# 122407
# 136492
# 150192
# 164970
# 178765
# 192937
# 206967
# 220997
# 232907
# 246010
# 259975
# 274305
# 288470
# 303335
# 316905
# 331222
#
# Disc length: 4608 seconds
#
#
# Revision: 1
# Processed by: cddbd v1.5.1PL2 Copyright (c) Steve Scherf et al.
# Submitted via: FreeRIP 2.944 
#
DISCID=6c11fe19
DTITLE=Leadbelly - Leadbelly Complete Recorded Works 1939-1947 - Disc 1
DYEAR=1994
DGENRE=Blues
TTITLE0=Daddy I'm Coming Back To You (take 3)
TTITLE1=Short George (take 2)
TTITLE2=Fannin Street
TTITLE3=Frankie And Albert - First Half
TTITLE4=Frankie And Albert - Completion
TTITLE5=De Kalb Blues
TTITLE6=Looky Looky Yonder/Black Betty/Yellow Women's...
TTITLE7=The Bourgeois Blues
TTITLE8=Poor Howard/Green Corn
TTITLE9=The Boll Weevil
TTITLE10=The Gallis Pole
TTITLE11=Ain't Goin' Down To The Well No Mo'/Go Down Old Hannah
TTITLE12=Pick A Bale Of Cotton
TTITLE13=Whoa Back, Buck
TTITLE14=Midnight Special
TTITLE15=Alabama Bound
TTITLE16=Rock Island Line
TTITLE17=Good Morning Blues
TTITLE18=Leaving Blues
TTITLE19=T. B. Blues
TTITLE20=Red Cross Store Blues
TTITLE21=Sail On, Little Girl, Sail On
TTITLE22=Roberta
TTITLE23=Alberta
TTITLE24=I'm On My Last Go-Round
EXTD=
EXTT0=
EXTT1=
EXTT2=
EXTT3=
EXTT4=
EXTT5=
EXTT6=
EXTT7=
EXTT8=
EXTT9=
EXTT10=
EXTT11=
EXTT12=
EXTT13=
EXTT14=
EXTT15=
EXTT16=
EXTT17=
EXTT18=
EXTT19=
EXTT20=
EXTT21=
EXTT22=
EXTT23=
EXTT24=
PLAYORDER=
